<svg id="Layer_1" data-name="Layer 1" xmlns="http://www.w3.org/2000/svg" viewBox="0 0 87.47 138.4"><defs><style>.cls-1{fill:#f47621;}</style></defs><title>logo</title><circle class="cls-1" cx="56.99" cy="56.34" r="4.38"/><circle class="cls-1" cx="56.99" cy="70.78" r="4.38"/><circle class="cls-1" cx="56.99" cy="84.58" r="4.38"/><path class="cls-1" d="M118.14,10.18l-2.45-4a.91.91,0,0,0-1.25-.32A41.4,41.4,0,0,0,94.52,41.2v63.52a24.92,24.92,0,0,1-1.14,7.46,15,15,0,0,1-9.71,9.9,15.23,15.23,0,0,1-4,.66h-.43A12.79,12.79,0,0,1,66.54,109.9V76.5a.9.9,0,0,0-.91-.9H31.56a.9.9,0,0,0-.9.9v28.19a39.51,39.51,0,0,0,11.28,27.79,39.14,39.14,0,0,0,55.74,0A39.51,39.51,0,0,0,109,104.69l-5.84-62.33C102.7,28,107.89,16.85,118.14,10.18Zm-57.74,113-5.3-.29c-7.42,0-13.44-6.44-13.44-14.39V84.89a.8.8,0,0,1,.8-.8H54.3a.8.8,0,0,1,.8.8v23.17a18,18,0,0,0,3.75,11l2.24,2.83A.82.82,0,0,1,60.4,123.21Z" transform="translate(-30.66 -5.74)"/></svg>